#define ether_width 32
#define ether_height 32
static unsigned char ether_bits[] = {
   0x00, 0xc0, 0x03, 0x00, 0x00, 0x60, 0x06, 0x00, 0x00, 0x60, 0x06, 0x00,
   0x00, 0x30, 0x0c, 0x00, 0x00, 0x18, 0x19, 0x00, 0x00, 0x18, 0x19, 0x00,
   0x00, 0x0c, 0x31, 0x00, 0x00, 0x06, 0x61, 0x00, 0x00, 0x06, 0x61, 0x00,
   0x00, 0x03, 0xc1, 0x00, 0x80, 0x01, 0x81, 0x01, 0x80, 0x01, 0x81, 0x01,
   0xc0, 0x00, 0x01, 0x03, 0x60, 0x00, 0x01, 0x06, 0x60, 0x00, 0x01, 0x06,
   0x30, 0x00, 0x01, 0x0c, 0x30, 0x01, 0x81, 0x0c, 0x60, 0x06, 0x61, 0x06,
   0x60, 0x18, 0x19, 0x06, 0xc0, 0x60, 0x07, 0x03, 0x80, 0x81, 0x81, 0x01,
   0x80, 0x01, 0x80, 0x01, 0x00, 0x83, 0xc0, 0x00, 0x00, 0x86, 0x60, 0x00,
   0x00, 0x86, 0x60, 0x00, 0x00, 0x8c, 0x30, 0x00, 0x00, 0x98, 0x18, 0x00,
   0x00, 0x98, 0x18, 0x00, 0x00, 0xb0, 0x0c, 0x00, 0x00, 0xe0, 0x06, 0x00,
   0x00, 0x60, 0x06, 0x00, 0x00, 0xc0, 0x03, 0x00 };
