#define TEST_width 32
#define TEST_height 32

static unsigned char TEST_bits[] = {
   0x8b, 0x01, 0x00, 0x80, 0x86, 0x02, 0x00, 0x40, 0x81, 0x04, 0x00, 0x20,
   0x80, 0x08, 0x10, 0x10, 0x81, 0x10, 0x28, 0x08, 0x80, 0x20, 0x44, 0x04,
   0x81, 0x40, 0x82, 0x02, 0xfe, 0x80, 0x01, 0x01, 0x01, 0x80, 0x01, 0x00,
   0x03, 0x40, 0x02, 0x00, 0x07, 0x20, 0x04, 0x00, 0x0f, 0x10, 0x08, 0x00,
   0x1f, 0x08, 0x10, 0x00, 0x3f, 0x04, 0x20, 0x00, 0x7f, 0x02, 0x40, 0x00,
   0xff, 0x01, 0x80, 0x00, 0x00, 0x00, 0x00, 0x01, 0x00, 0x00, 0x00, 0x02,
   0x00, 0x00, 0x00, 0x04, 0x00, 0x00, 0x00, 0x08, 0x00, 0x00, 0x00, 0x10,
   0x00, 0x00, 0x00, 0x20, 0x00, 0x00, 0x00, 0x40, 0x00, 0x00, 0x00, 0x80,
   0x00, 0x00, 0x00, 0x40, 0x00, 0x00, 0x00, 0x20, 0x00, 0x00, 0x00, 0x10,
   0x00, 0x00, 0x00, 0x08, 0x00, 0x00, 0x00, 0x04, 0x00, 0x00, 0x00, 0x02,
   0x00, 0x00, 0x00, 0x01, 0x00, 0x00, 0x80, 0x00 };
